<?xml version="1.0" standalone="no"?>
<!DOCTYPE svg PUBLIC "-//W3C//DTD SVG 20010904//EN"
 "http://www.w3.org/TR/2001/REC-SVG-20010904/DTD/svg10.dtd">
<svg version="1.0" xmlns="http://www.w3.org/2000/svg"
 width="260.000000pt" height="260.000000pt" viewBox="0 0 260.000000 260.000000"
 preserveAspectRatio="xMidYMid meet">
<metadata>
Created by potrace 1.11, written by Peter Selinger 2001-2013
</metadata>
<g transform="translate(0.000000,260.000000) scale(0.100000,-0.100000)"
fill="#000000" stroke="none">
<path d="M50 1315 c0 -105 0 -105 24 -105 23 0 25 4 28 52 l3 53 34 -53 c18
-28 37 -49 42 -46 5 3 21 26 36 52 l28 47 3 -52 c3 -49 5 -53 28 -53 17 0 24
6 25 20 0 11 1 58 2 105 l2 85 -27 0 c-22 0 -33 -11 -64 -61 l-37 -61 -40 61
c-30 46 -45 61 -63 61 -24 0 -24 -1 -24 -105z"/>
<path d="M377 1414 c-4 -4 -7 -52 -7 -106 0 -98 0 -98 25 -98 21 0 25 5 25 30
0 28 3 30 35 30 32 0 35 -2 35 -30 0 -25 4 -30 25 -30 l26 0 -3 103 -3 102
-75 3 c-42 1 -79 0 -83 -4z m111 -66 c-2 -18 -10 -23 -33 -23 -23 0 -31 5 -33
23 -3 19 1 22 33 22 32 0 36 -3 33 -22z"/>
<path d="M600 1315 c0 -105 0 -105 24 -105 23 0 25 4 28 53 l3 52 33 -52 c26
-40 40 -53 58 -53 24 0 24 1 24 105 0 105 0 105 -24 105 -23 0 -25 -4 -28 -52
l-3 -53 -34 53 c-25 39 -39 52 -57 52 -24 0 -24 -1 -24 -105z"/>
<path d="M850 1395 c0 -21 5 -25 30 -25 30 0 30 -1 30 -55 0 -54 0 -55 -30
-55 -25 0 -30 -4 -30 -25 0 -25 1 -25 85 -25 84 0 85 0 85 25 0 21 -5 25 -30
25 -30 0 -30 1 -30 55 0 54 0 55 30 55 25 0 30 4 30 25 0 25 -1 25 -85 25 -84
0 -85 0 -85 -25z"/>
<path d="M1080 1315 l0 -105 90 0 c89 0 90 0 90 25 0 24 -2 25 -65 25 l-65 0
0 80 c0 79 0 80 -25 80 l-25 0 0 -105z"/>
<path d="M1317 1414 c-4 -4 -7 -52 -7 -106 0 -98 0 -98 25 -98 21 0 25 5 25
30 0 28 3 30 35 30 32 0 35 -2 35 -30 0 -25 4 -30 25 -30 l26 0 -3 103 -3 102
-75 3 c-42 1 -79 0 -83 -4z m111 -66 c-2 -18 -10 -23 -33 -23 -23 0 -31 5 -33
23 -3 19 1 22 33 22 32 0 36 -3 33 -22z"/>
<path d="M1550 1395 c0 -21 5 -25 30 -25 l30 0 0 -80 c0 -79 0 -80 25 -80 25
0 25 1 25 80 l0 80 30 0 c25 0 30 4 30 25 0 25 -1 25 -85 25 -84 0 -85 0 -85
-25z"/>
<path d="M1780 1315 l0 -105 85 0 c84 0 85 0 85 25 0 24 -3 25 -60 25 -47 0
-60 3 -60 15 0 11 12 15 49 15 31 0 51 5 54 13 9 27 -6 37 -54 37 -37 0 -49 4
-49 15 0 12 13 15 60 15 57 0 60 1 60 25 0 25 -1 25 -85 25 l-85 0 0 -105z"/>
<path d="M2042 1408 c-14 -14 -17 -165 -3 -186 5 -9 29 -12 81 -10 70 3 75 5
80 28 4 14 5 31 2 38 -6 18 -52 15 -52 -3 0 -10 -10 -15 -33 -15 l-34 0 1 53
c1 51 1 52 34 55 24 3 32 -1 32 -13 0 -12 7 -15 27 -13 28 3 35 20 22 56 -8
20 -15 22 -77 22 -39 0 -73 -5 -80 -12z"/>
<path d="M2287 1413 c-2 -4 -4 -51 -3 -103 1 -84 3 -95 20 -98 24 -5 34 12 30
49 -4 29 -3 30 34 27 36 -3 37 -4 36 -41 -1 -35 1 -38 25 -35 25 3 25 3 25
103 l1 100 -26 3 c-24 3 -26 0 -24 -26 3 -41 -7 -54 -41 -50 -26 3 -29 7 -30
38 0 28 -5 36 -21 38 -12 2 -23 0 -26 -5z"/>
</g>
</svg>
